<svg width="1191" height="499" viewBox="0 0 1191 499" fill="none" xmlns="http://www.w3.org/2000/svg">
<path d="M137 81C113.783 81 95 99.8309 95 123C95 146.169 113.783 165 137 165C160.217 165 179 146.217 179 123C179 99.7832 160.217 81 137 81Z" fill="url(#paint0_linear_4431_4195)"/>
<path d="M257.287 234.947V300.411C257.287 338.622 269.62 353.915 299.909 353.915V414.615C235.928 414.615 195.669 377.357 195.669 300.411V234.947H153V189.685C182.816 189.685 207.01 165.29 207.01 135.227V110.023H257.239V174.295H299.861V234.995H257.239L257.287 234.947Z" fill="#222222"/>
<path d="M566.839 288.452C567.311 298.505 566.366 308.51 564.949 318.087H389.122C394.792 341.48 415.205 356.298 443.131 356.298C462.552 356.298 473.94 350.58 483.91 342.433L557.341 342.91C537.92 386.886 494.306 416.949 445.022 416.949C378.206 418.379 321.314 360.538 322.779 294.121C321.361 228.658 377.261 168.959 443.131 170.388C503.331 170.388 564.949 215.317 566.839 288.404V288.452ZM500.969 268.393C491.471 245.905 469.215 231.135 445.022 231.135C418.466 231.135 399.045 245.476 389.122 268.393H500.969Z" fill="#222222"/>
<path d="M599.868 287.499C599.868 211.506 640.648 173.295 701.273 173.295H704.108V233.994H701.745C674.717 233.994 661.439 250.717 661.439 287.499V413.185H599.821V287.499H599.868Z" fill="#222222"/>
<path d="M728.538 287.499C728.538 211.506 769.269 173.295 829.942 173.295H832.777V233.994H830.414C803.386 233.994 790.108 250.717 790.108 287.499V413.185H728.49V287.499H728.538Z" fill="#222222"/>
<path d="M974.157 170.436C1040.03 169.007 1097.39 227.276 1095.97 293.74V413.185H1034.36V387.838C1027.22 403.609 1000.71 416.997 974.157 416.997C908.287 418.426 850.449 360.157 851.914 293.74C850.497 227.324 908.287 169.007 974.157 170.436ZM1017.77 249.288C1006.38 237.329 992.207 231.135 974.629 231.135C957.051 231.135 942.876 237.329 931.015 249.288C919.155 261.199 913.484 276.064 913.484 293.74C913.484 311.417 919.155 326.71 931.015 338.669C942.876 350.628 957.099 356.345 974.629 356.345C992.16 356.345 1006.38 350.628 1017.77 338.669C1029.16 326.71 1034.83 311.417 1034.83 293.74C1034.83 276.064 1029.16 261.247 1017.77 249.288Z" fill="#222222"/>
<mask id="mask0_4431_4195" style="mask-type:alpha" maskUnits="userSpaceOnUse" x="95" y="81" width="1001" height="337">
<path d="M137 81C113.783 81 95 99.8309 95 123C95 146.169 113.783 165 137 165C160.217 165 179 146.217 179 123C179 99.7832 160.217 81 137 81Z" fill="url(#paint1_linear_4431_4195)"/>
<path d="M257.287 234.947V300.411C257.287 338.622 269.62 353.915 299.909 353.915V414.615C235.928 414.615 195.669 377.357 195.669 300.411V234.947H153V189.685C182.816 189.685 207.01 165.29 207.01 135.227V110.023H257.239V174.295H299.861V234.995H257.239L257.287 234.947Z" fill="white"/>
<path d="M566.839 288.452C567.311 298.505 566.366 308.51 564.949 318.087H389.122C394.792 341.48 415.205 356.298 443.131 356.298C462.552 356.298 473.94 350.58 483.91 342.433L557.341 342.91C537.92 386.886 494.306 416.949 445.022 416.949C378.206 418.379 321.314 360.538 322.779 294.121C321.361 228.658 377.261 168.959 443.131 170.388C503.331 170.388 564.949 215.317 566.839 288.404V288.452ZM500.969 268.393C491.471 245.905 469.215 231.135 445.022 231.135C418.466 231.135 399.045 245.476 389.122 268.393H500.969Z" fill="white"/>
<path d="M599.868 287.499C599.868 211.506 640.648 173.295 701.273 173.295H704.108V233.994H701.745C674.717 233.994 661.439 250.717 661.439 287.499V413.185H599.821V287.499H599.868Z" fill="white"/>
<path d="M728.538 287.499C728.538 211.506 769.269 173.295 829.942 173.295H832.777V233.994H830.414C803.386 233.994 790.108 250.717 790.108 287.499V413.185H728.49V287.499H728.538Z" fill="white"/>
<path d="M974.157 170.436C1040.03 169.007 1097.39 227.276 1095.97 293.74V413.185H1034.36V387.838C1027.22 403.609 1000.71 416.997 974.157 416.997C908.287 418.426 850.449 360.157 851.914 293.74C850.497 227.324 908.287 169.007 974.157 170.436ZM1017.77 249.288C1006.38 237.329 992.207 231.135 974.629 231.135C957.051 231.135 942.876 237.329 931.015 249.288C919.155 261.199 913.484 276.064 913.484 293.74C913.484 311.417 919.155 326.71 931.015 338.669C942.876 350.628 957.099 356.345 974.629 356.345C992.16 356.345 1006.38 350.628 1017.77 338.669C1029.16 326.71 1034.83 311.417 1034.83 293.74C1034.83 276.064 1029.16 261.247 1017.77 249.288Z" fill="white"/>
</mask>
<g mask="url(#mask0_4431_4195)">
<path d="M164.062 90C180.16 126.122 205.712 169.899 238.779 208.431C280.705 257.285 330.269 292.657 383.186 299.887C453.805 309.535 491.59 286.114 540.352 257.695C564.886 243.397 593.881 226.853 629.31 217.484C665.678 207.868 706.67 206.262 756.309 217.543C792.96 225.873 823.943 249.629 848.492 268.977C875.481 290.247 898.434 309.476 925.632 323.219C951.266 336.172 979.726 343.556 1015.54 338.938C1037.98 336.045 1064.5 328.281 1096 312.789V328.324C1065.98 342.442 1040 349.901 1017.33 352.823C978.305 357.856 947.035 349.721 919.317 335.715C890.557 321.182 866.295 300.834 839.826 279.974C814.983 260.395 786.334 238.726 753.205 231.196C705.613 220.38 666.921 222.022 632.889 231.021C599.483 239.854 571.945 255.488 547.401 269.792C498.519 298.281 457.036 324.108 381.29 313.759C323.554 305.87 271.151 267.65 228.155 217.549C192.413 175.899 165.219 128.366 148.785 90H164.062Z" fill="#F14352"/>
<path d="M96 108.956C114.45 152.898 145.068 206.72 185.658 254.019C232.934 309.106 296.698 358.721 373.71 369.243C469.962 382.394 526.232 346.946 575.599 318.175C600.18 303.849 621.892 291.854 647.205 285.16C671.891 278.632 701.388 276.848 740.795 285.804C759.834 290.131 779.147 303.454 805.163 323.957C829.553 343.179 859.052 368.006 894.062 385.696C930.113 403.913 972.626 415.052 1024.5 408.363C1046.91 405.473 1070.65 399.309 1096 389.315V404.319C1071.59 413.54 1048.42 419.394 1026.29 422.248C971.205 429.35 925.883 417.461 887.748 398.191C851.176 379.712 820.369 353.764 796.498 334.952C770.188 314.218 753.209 302.983 737.692 299.456C700.332 290.965 673.134 292.784 650.784 298.694C627.495 304.853 607.239 315.938 582.648 330.27C533.161 359.112 473.194 396.964 371.814 383.113C289.983 371.933 223.38 319.469 175.034 263.135C141.79 224.396 115.079 181.433 96 142.656V108.956Z" fill="#A32FD6"/>
<path d="M148.787 90C165.221 128.366 192.413 175.9 228.155 217.549C271.151 267.65 323.555 305.869 381.291 313.758C457.037 324.107 498.52 298.281 547.402 269.792C571.946 255.488 599.484 239.854 632.89 231.021C666.922 222.022 705.614 220.38 753.206 231.196C786.335 238.726 814.984 260.395 839.827 279.974C866.296 300.834 890.558 321.181 919.318 335.714C947.036 349.72 978.306 357.855 1017.33 352.822C1040 349.9 1065.98 342.441 1096 328.324V343.734C1067.32 356.634 1041.88 363.772 1019.13 366.707C976.887 372.153 942.806 363.269 913.005 348.21C882.682 332.888 857.111 311.42 831.161 290.97C806.025 271.16 779.71 251.578 750.104 244.849C704.558 234.497 668.164 236.174 636.469 244.556C605.086 252.854 579.004 267.578 554.451 281.888C505.448 310.448 460.269 338.678 379.396 327.629C316.842 319.082 261.597 278.014 217.531 226.666C179.092 181.874 150.285 130.541 133.602 90H148.787Z" fill="#F07304"/>
<path d="M103.494 90C120.442 134.7 152.39 193.755 196.283 244.901C242.489 298.742 303.413 345.507 375.605 355.371C466.732 367.821 519.305 334.779 568.551 306.078C593.122 291.757 616.291 278.853 643.627 271.625C670.65 264.479 702.445 262.731 743.898 272.152C766.46 277.28 788.107 292.689 813.83 312.961C838.74 332.592 866.93 356.299 900.377 373.2C934.345 390.364 974.046 400.752 1022.71 394.478C1045.32 391.561 1069.64 385.075 1096 374.221V389.315C1070.65 399.309 1046.91 405.472 1024.5 408.362C972.626 415.051 930.114 403.912 894.062 385.695C859.053 368.005 829.554 343.178 805.164 323.956C779.148 303.453 759.835 290.131 740.796 285.804C701.389 276.848 671.892 278.632 647.206 285.16C621.894 291.854 600.181 303.848 575.6 318.174C526.233 346.945 469.963 382.393 373.711 369.242C296.699 358.72 232.934 309.107 185.658 254.019C145.067 206.719 114.45 152.896 96 108.954V90H103.494Z" fill="#256DDA"/>
<path d="M133.601 90C150.284 130.541 179.091 181.874 217.531 226.666C261.597 278.014 316.841 319.082 379.396 327.629C460.268 338.678 505.446 310.448 554.45 281.888C579.003 267.578 605.085 252.854 636.468 244.556C668.163 236.174 704.556 234.497 750.103 244.849C779.71 251.578 806.024 271.16 831.16 290.97C857.11 311.421 882.681 332.888 913.004 348.21C942.805 363.269 976.886 372.153 1019.12 366.707C1041.88 363.772 1067.32 356.634 1096 343.734V359.031C903.819 441.72 838.304 279.251 747 258.5C573 218.955 549.5 365 377.5 341.5C248.691 323.901 153.842 179.425 118.507 90H133.601Z" fill="#EEB407"/>
<path d="M118.507 90C153.842 179.425 248.691 323.901 377.5 341.5C549.5 365 573 218.955 747 258.5C838.304 279.251 903.819 441.72 1096 359.031V374.222C1069.64 385.077 1045.32 391.561 1022.71 394.478C974.045 400.752 934.344 390.365 900.376 373.2C866.929 356.299 838.739 332.593 813.829 312.961C788.106 292.688 766.46 277.28 743.897 272.152C702.444 262.731 670.649 264.479 643.626 271.625C616.29 278.853 593.121 291.757 568.55 306.078C519.304 334.779 466.731 367.822 375.604 355.371C303.412 345.507 242.489 298.742 196.283 244.901C152.39 193.754 120.442 134.7 103.494 90H118.507Z" fill="#0ABD33"/>
</g>
<path d="M163.837 155.334C149.015 135.873 129.866 114.278 107.481 93.1216C110.836 89.804 114.781 87.022 119.213 84.9573C140.348 105.136 158.609 125.653 173.126 144.44C170.69 148.547 167.557 152.243 163.837 155.334Z" fill="#222222"/>
<path d="M135.873 165.004C117.758 164.53 101.373 152.287 96.4408 133.879C95.1996 129.247 94.7843 124.59 95.0997 120.063C110.721 135.364 124.474 150.719 135.873 165.004Z" fill="#222222"/>
<path d="M151.61 162.389C137.7 144.293 119.927 124.289 99.245 104.605C101.317 100.357 104.098 96.4674 107.481 93.1216C129.866 114.278 149.015 135.873 163.837 155.334C160.269 158.3 156.16 160.708 151.61 162.389Z" fill="#222222"/>
<path d="M173.126 144.44C158.609 125.653 140.348 105.136 119.213 84.9573C121.407 83.9353 123.719 83.0879 126.139 82.4396C129.19 81.622 132.252 81.1659 135.281 81.0384C151.691 97.189 166.272 113.436 178.617 128.799C177.84 134.363 175.951 139.677 173.126 144.44Z" fill="#222222"/>
<path d="M147.88 163.577C143.862 164.654 139.826 165.108 135.871 165.004C124.472 150.72 110.72 135.364 95.0997 120.063C95.4779 114.634 96.9104 109.393 99.245 104.605C119.927 124.289 137.7 144.294 151.609 162.39C150.397 162.838 149.153 163.236 147.88 163.577Z" fill="#222222"/>
<path d="M178.618 128.797C166.273 113.435 151.69 97.1884 135.281 81.0384C146.606 80.5617 157.463 84.7256 165.534 92.1797C167.208 93.9982 168.855 95.8147 170.479 97.6244C173.676 101.835 176.127 106.721 177.578 112.138C179.08 117.742 179.373 123.387 178.618 128.797Z" fill="#222222"/>
<defs>
<linearGradient id="paint0_linear_4431_4195" x1="158.024" y1="159.422" x2="115.976" y2="86.6254" gradientUnits="userSpaceOnUse">
<stop stop-color="#272428"/>
<stop offset="0.5" stop-color="#5599C4"/>
<stop offset="1" stop-color="#E4E4E4"/>
</linearGradient>
<linearGradient id="paint1_linear_4431_4195" x1="158.024" y1="159.422" x2="115.976" y2="86.6254" gradientUnits="userSpaceOnUse">
<stop stop-color="#272428"/>
<stop offset="0.5" stop-color="#5599C4"/>
<stop offset="1" stop-color="#E4E4E4"/>
</linearGradient>
</defs>
</svg>
